<svg xmlns="http://www.w3.org/2000/svg" width="111.665" height="39.285" viewBox="0 0 111.665 39.285"><defs><style>.a{fill:#006;}.b{fill:#ef5425;}.c{fill:#fff;}</style></defs><g transform="translate(-32 -46)"><path class="a" d="M195.73,283.526a4.328,4.328,0,0,1-1.037,3.129,4.112,4.112,0,0,1-3.093,1.073,4.845,4.845,0,0,1-2.209-.474,3.369,3.369,0,0,1-1.439-1.341,3.986,3.986,0,0,1-.5-2.03v-.322h2.539a2.137,2.137,0,0,0,.367,1.386,1.4,1.4,0,0,0,1.135.438,1.411,1.411,0,0,0,.921-.26,1.21,1.21,0,0,0,.411-.652,3.95,3.95,0,0,0,.1-.947v-8.44h2.807Z" transform="translate(-112.143 -215.033)"/><path class="a" d="M214.093,274.868a1.364,1.364,0,0,1-.528.51,1.671,1.671,0,0,1-1.537,0,1.357,1.357,0,0,1-.528-.51,1.527,1.527,0,0,1,0-1.466,1.354,1.354,0,0,1,.528-.51,1.67,1.67,0,0,1,1.537,0,1.36,1.36,0,0,1,.528.51,1.528,1.528,0,0,1,0,1.466Zm-.027,2v9.244h-2.539V276.87Z" transform="translate(-125.436 -213.705)"/><path class="a" d="M230.712,288.993a4.185,4.185,0,0,1-1.644,1.7,5.272,5.272,0,0,1-4.9-.009,4.117,4.117,0,0,1-1.627-1.708,6,6,0,0,1,0-5.113,4.122,4.122,0,0,1,1.627-1.708,5.313,5.313,0,0,1,4.935,0,4.113,4.113,0,0,1,1.627,1.717,5.5,5.5,0,0,1,.573,2.557A5.339,5.339,0,0,1,230.712,288.993Zm-2.493-.4a3.7,3.7,0,0,0,.545-2.163,4.058,4.058,0,0,0-.5-2.119,1.77,1.77,0,0,0-1.645-.831,1.809,1.809,0,0,0-1.556.768,4.587,4.587,0,0,0-.009,4.354,2.02,2.02,0,0,0,3.165-.009Z" transform="translate(-131.373 -218.631)"/><path class="a" d="M251.84,275.086l2.789,8.368h.036l2.664-8.368h3.952v12.355h-2.629V278.77h-.035l-2.95,8.672H253.5l-2.951-8.6h-.035v8.6h-2.628V275.086Z" transform="translate(-145.814 -215.033)"/><path class="a" d="M291.658,287.035h-6.49a2.6,2.6,0,0,0,.626,1.761,2.208,2.208,0,0,0,1.645.581,2.347,2.347,0,0,0,1.216-.286,1.169,1.169,0,0,0,.59-.733H291.5a3.684,3.684,0,0,1-1.457,2.181,4.674,4.674,0,0,1-2.727.751,4.947,4.947,0,0,1-2.485-.6,4.014,4.014,0,0,1-1.619-1.7,5.561,5.561,0,0,1-.563-2.566,5.327,5.327,0,0,1,.581-2.494,4.351,4.351,0,0,1,1.627-1.752,4.506,4.506,0,0,1,2.387-.635,4.312,4.312,0,0,1,2.422.652,4.09,4.09,0,0,1,1.5,1.8,6.318,6.318,0,0,1,.509,2.592Zm-2.521-1.609q-.179-1.967-1.931-1.967a1.916,1.916,0,0,0-1.4.519,2.337,2.337,0,0,0-.635,1.449Z" transform="translate(-165.176 -218.631)"/><path class="a" d="M315.034,287.035h-6.49a2.6,2.6,0,0,0,.626,1.761,2.208,2.208,0,0,0,1.645.581,2.347,2.347,0,0,0,1.216-.286,1.169,1.169,0,0,0,.59-.733h2.253a3.685,3.685,0,0,1-1.457,2.181,4.674,4.674,0,0,1-2.727.751,4.947,4.947,0,0,1-2.485-.6,4.015,4.015,0,0,1-1.619-1.7,5.561,5.561,0,0,1-.563-2.566,5.328,5.328,0,0,1,.581-2.494,4.352,4.352,0,0,1,1.627-1.752,4.506,4.506,0,0,1,2.387-.635,4.312,4.312,0,0,1,2.422.652,4.088,4.088,0,0,1,1.5,1.8,6.317,6.317,0,0,1,.509,2.592Zm-2.521-1.609q-.179-1.967-1.931-1.967a1.915,1.915,0,0,0-1.4.519,2.336,2.336,0,0,0-.635,1.449Z" transform="translate(-178.201 -218.631)"/><path class="a" d="M332.533,278.624h1.806v1.7h-1.806V284.4a3.089,3.089,0,0,0,.124.992.82.82,0,0,0,.385.482,1.455,1.455,0,0,0,.67.134,2.506,2.506,0,0,0,.679-.089v1.949a4.054,4.054,0,0,1-1.2.161,3.388,3.388,0,0,1-2.369-.76,3.321,3.321,0,0,1-.831-2.548v-4.4h-1.485v-1.7h1.485v-2.771h2.539Z" transform="translate(-190.727 -215.461)"/><g transform="translate(32 46)"><path class="b" d="M53.963,34.321A19.643,19.643,0,1,1,34.321,14.678,19.643,19.643,0,0,1,53.963,34.321" transform="translate(-14.678 -14.678)"/><path class="c" d="M55.941,46l0,0h0a1.121,1.121,0,0,0-1.585,0l-3.212,2.552a.3.3,0,0,1-.484-.234,4.012,4.012,0,0,0-4.012-4.012H36.011A4.012,4.012,0,0,0,32,48.317V53.9a4.012,4.012,0,0,0,4.012,4.012H46.645A4.012,4.012,0,0,0,50.657,53.9a.3.3,0,0,1,.484-.234l3.214,2.551a1.121,1.121,0,0,0,1.914-.791V46.793a1.115,1.115,0,0,0-.329-.8" transform="translate(-24.492 -31.465)"/><path class="b" d="M48.069,53.925A1.18,1.18,0,1,1,46.947,55.1a1.108,1.108,0,0,1,1.122-1.173M42,51.859c0-.644-.312-.966-.9-.966h-.3c-.571,0-.882.322-.882.966v3.1c0,.8-.27,1.08-.9,1.08a1.528,1.528,0,0,1-1.225-.612A1.036,1.036,0,0,0,37.1,56.47c0,.83.779,1.339,2.222,1.339C41.077,57.808,42,56.926,42,55Zm2.707,1.568c0-.747-.352-.965-.893-.965h-.207c-.509,0-.893.238-.893.965v3.322c0,.736.374.966.914.966h.207c.508,0,.872-.249.872-.966Zm-.976-1.495a.93.93,0,0,0,1.048-.945c0-.581-.415-.934-1.08-.934a.929.929,0,0,0-1.049.934c0,.582.415.945,1.08.945m4.325,5.876a2.7,2.7,0,1,0-2.8-2.71,2.6,2.6,0,0,0,2.8,2.71" transform="translate(-27.383 -34.721)"/></g></g></svg>